HIERARCHY
ROOT Haolin_28_06:Solving:Hips
{
	OFFSET 0.000000 0.000000 0.000000
	CHANNELS 6 Xposition Yposition Zposition Xrotation Yrotation Zrotation
	JOINT Haolin_28_06:Solving:Spine
	{
		OFFSET 0.000000 -12.181966 2.015561
		CHANNELS 6 Xposition Yposition Zposition Xrotation Yrotation Zrotation
		JOINT Haolin_28_06:Solving:Spine1
		{
			OFFSET 0.000000 -8.890296 1.567602
			CHANNELS 6 Xposition Yposition Zposition Xrotation Yrotation Zrotation
			JOINT Haolin_28_06:Solving:Spine2
			{
				OFFSET 0.000000 -8.993092 0.786796
				CHANNELS 6 Xposition Yposition Zposition Xrotation Yrotation Zrotation
				JOINT Haolin_28_06:Solving:Spine3
				{
					OFFSET 0.000000 -9.027443 0.000000
					CHANNELS 6 Xposition Yposition Zposition Xrotation Yrotation Zrotation
					JOINT Haolin_28_06:Solving:Neck
					{
						OFFSET 0.000000 -11.606712 -1.160669
						CHANNELS 6 Xposition Yposition Zposition Xrotation Yrotation Zrotation
						JOINT Haolin_28_06:Solving:Neck1
						{
							OFFSET 0.000000 -7.471592 -0.653680
							CHANNELS 6 Xposition Yposition Zposition Xrotation Yrotation Zrotation
							JOINT Haolin_28_06:Solving:Head
							{
								OFFSET 0.000000 -7.386181 -1.302382
								CHANNELS 6 Xposition Yposition Zposition Xrotation Yrotation Zrotation
								JOINT Haolin_28_06:Solving:HeadEnd
								{
									OFFSET 0.000000 -9.728081 0.000002
									CHANNELS 6 Xposition Yposition Zposition Xrotation Yrotation Zrotation
									End Site
									{
										OFFSET 0.000000 -9.728081 0.000002
									}
								}
							}
						}
					}
					JOINT Haolin_28_06:Solving:RightShoulder
					{
						OFFSET 0.000000 -8.290508 -5.270916
						CHANNELS 6 Xposition Yposition Zposition Xrotation Yrotation Zrotation
						JOINT Haolin_28_06:Solving:RightArm
						{
							OFFSET -19.261074 -0.000008 0.000000
							CHANNELS 6 Xposition Yposition Zposition Xrotation Yrotation Zrotation
							JOINT Haolin_28_06:Solving:RightForeArm
							{
								OFFSET -30.691700 -0.000011 0.000000
								CHANNELS 6 Xposition Yposition Zposition Xrotation Yrotation Zrotation
								JOINT Haolin_28_06:Solving:RightHand
								{
									OFFSET -20.216934 -0.000008 0.000000
									CHANNELS 6 Xposition Yposition Zposition Xrotation Yrotation Zrotation
									JOINT Haolin_28_06:Solving:RightHandThumb1
									{
										OFFSET -4.948814 2.881329 -3.679893
										CHANNELS 6 Xposition Yposition Zposition Xrotation Yrotation Zrotation
										End Site
										{
											OFFSET -7.039886 -0.000004 -7.104978
										}
									}
									JOINT Haolin_28_06:Solving:RightHandMiddle1
									{
										OFFSET -13.196846 -0.000004 0.084595
										CHANNELS 6 Xposition Yposition Zposition Xrotation Yrotation Zrotation
										End Site
										{
											OFFSET -10.002037 -0.000004 0.000000
										}
									}
								}
							}
						}
					}
					JOINT Haolin_28_06:Solving:LeftShoulder
					{
						OFFSET 0.000000 -8.290508 -5.270916
						CHANNELS 6 Xposition Yposition Zposition Xrotation Yrotation Zrotation
						JOINT Haolin_28_06:Solving:LeftArm
						{
							OFFSET 19.261074 -0.000008 0.000000
							CHANNELS 6 Xposition Yposition Zposition Xrotation Yrotation Zrotation
							JOINT Haolin_28_06:Solving:LeftForeArm
							{
								OFFSET 30.691700 -0.000011 0.000000
								CHANNELS 6 Xposition Yposition Zposition Xrotation Yrotation Zrotation
								JOINT Haolin_28_06:Solving:LeftHand
								{
									OFFSET 20.216934 -0.000008 0.000000
									CHANNELS 6 Xposition Yposition Zposition Xrotation Yrotation Zrotation
									JOINT Haolin_28_06:Solving:LeftHandThumb1
									{
										OFFSET 4.948814 2.881329 -3.679893
										CHANNELS 6 Xposition Yposition Zposition Xrotation Yrotation Zrotation
										End Site
										{
											OFFSET 7.039886 -0.000004 -7.104978
										}
									}
									JOINT Haolin_28_06:Solving:LeftHandMiddle1
									{
										OFFSET 13.196846 -0.000004 0.084595
										CHANNELS 6 Xposition Yposition Zposition Xrotation Yrotation Zrotation
										End Site
										{
											OFFSET 10.002037 -0.000004 0.000000
										}
									}
								}
							}
						}
					}
				}
			}
		}
	}
	JOINT Haolin_28_06:Solving:RightUpLeg
	{
		OFFSET -10.083070 0.000000 0.000000
		CHANNELS 6 Xposition Yposition Zposition Xrotation Yrotation Zrotation
		JOINT Haolin_28_06:Solving:RightLeg
		{
			OFFSET 0.000000 47.042522 -0.000008
			CHANNELS 6 Xposition Yposition Zposition Xrotation Yrotation Zrotation
			JOINT Haolin_28_06:Solving:RightFoot
			{
				OFFSET 0.000000 38.766415 -0.000006
				CHANNELS 6 Xposition Yposition Zposition Xrotation Yrotation Zrotation
				JOINT Haolin_28_06:Solving:RightForeFoot
				{
					OFFSET 0.000000 3.531212 -0.000000
					CHANNELS 6 Xposition Yposition Zposition Xrotation Yrotation Zrotation
					JOINT Haolin_28_06:Solving:RightToeBase
					{
						OFFSET 0.000000 0.000000 -13.829352
						CHANNELS 6 Xposition Yposition Zposition Xrotation Yrotation Zrotation
						JOINT Haolin_28_06:Solving:RightToeBaseEnd
						{
							OFFSET 0.000000 0.000000 -4.034167
							CHANNELS 6 Xposition Yposition Zposition Xrotation Yrotation Zrotation
							End Site
							{
								OFFSET 0.000000 -4.034164 0.000004
							}
						}
					}
				}
			}
		}
	}
	JOINT Haolin_28_06:Solving:LeftUpLeg
	{
		OFFSET 10.083070 0.000000 0.000000
		CHANNELS 6 Xposition Yposition Zposition Xrotation Yrotation Zrotation
		JOINT Haolin_28_06:Solving:LeftLeg
		{
			OFFSET 0.000000 47.042522 -0.000008
			CHANNELS 6 Xposition Yposition Zposition Xrotation Yrotation Zrotation
			JOINT Haolin_28_06:Solving:LeftFoot
			{
				OFFSET 0.000000 38.766415 -0.000006
				CHANNELS 6 Xposition Yposition Zposition Xrotation Yrotation Zrotation
				JOINT Haolin_28_06:Solving:LeftForeFoot
				{
					OFFSET 0.000000 3.531212 -0.000000
					CHANNELS 6 Xposition Yposition Zposition Xrotation Yrotation Zrotation
					JOINT Haolin_28_06:Solving:LeftToeBase
					{
						OFFSET 0.000000 0.000000 -13.829352
						CHANNELS 6 Xposition Yposition Zposition Xrotation Yrotation Zrotation
						JOINT Haolin_28_06:Solving:LeftToeBaseEnd
						{
							OFFSET 0.000000 0.000000 -4.855067
							CHANNELS 6 Xposition Yposition Zposition Xrotation Yrotation Zrotation
							End Site
							{
								OFFSET 0.000000 -4.855064 0.000004
							}
						}
					}
				}
			}
		}
	}
}
MOTION
Frames: 4
Frame Time: 0.041667
66.095413 -11.593293 -68.518570 173.090845 44.325202 -66.568711 0.000003 -12.181973 2.015565 22.474773 0.155514 0.334774 0.000004 -8.890298 1.567608 12.561429 -0.532058 1.287483 -0.000001 -8.993097 0.786783 11.561974 7.271683 8.664512 0.000001 -9.027426 -0.000000 -4.164953 2.033742 -0.832819 -0.000003 -11.606712 -1.160640 -8.734988 0.228336 6.420059 0.000000 -7.471595 -0.653662 -26.249626 -1.928630 -17.631346 -0.000002 -7.386187 -1.302388 -6.342181 -0.317971 -1.815446 0.000001 -9.728096 0.000004 -0.000000 0.000000 0.000000 -0.000005 -8.290512 -5.270891 -0.000008 16.706882 16.123083 -19.261078 -0.000017 0.000008 -26.813731 -47.101131 -83.740831 -30.691692 -0.000021 0.000021 -127.635144 -35.310107 -143.144892 -20.216928 -0.000003 0.000000 -0.435391 -2.192073 -11.236938 -4.948817 2.881300 -3.679894 -0.000005 0.000005 0.000006 -13.196857 -0.000031 0.084591 -0.000009 0.000003 0.000005 -0.000005 -8.290508 -5.270892 0.000001 -1.317231 -30.236920 19.261072 -0.000011 -0.000002 -68.265029 21.081796 41.857346 30.691696 -0.000011 0.000011 -59.397340 6.663975 11.100554 20.216932 -0.000017 0.000002 0.630472 3.349605 -10.665891 4.948793 2.881334 -3.679875 0.000002 0.000000 -0.000008 13.196836 -0.000009 0.084597 -0.000000 -0.000001 -0.000003 -10.083071 -0.000003 0.000018 -95.806005 14.598158 7.753528 -0.000002 47.042503 0.000004 88.422611 -0.000003 -0.000004 0.000003 38.766430 -0.000013 -25.166484 16.292192 -3.128532 0.000002 3.531204 0.000001 0.000002 -0.000001 0.000000 0.000002 0.000004 -13.829356 -14.445252 -0.000002 0.000000 -0.000003 0.000008 -4.034166 0.000000 -0.000001 0.000000 10.083072 -0.000007 0.000012 -103.626353 12.803722 -22.090949 -0.000004 47.042503 0.000017 78.985414 -0.000007 -0.000003 -0.000009 38.766411 -0.000009 -10.205638 -12.146448 18.015725 -0.000005 3.531212 0.000002 0.000000 -0.000001 -0.000001 0.000004 0.000003 -13.829341 8.077646 0.000007 -0.000000 -0.000007 -0.000000 -4.855069 -0.000000 0.000008 -0.000001 
66.049927 -11.754955 -68.589966 173.165718 44.645644 -66.543760 0.000001 -12.181955 2.015572 22.479474 0.173837 0.336124 -0.000002 -8.890289 1.567585 12.588794 -0.538265 1.299751 -0.000001 -8.993091 0.786781 11.612662 7.234480 8.705716 -0.000002 -9.027452 0.000010 -4.149698 2.027291 -0.834702 -0.000007 -11.606729 -1.160659 -8.710722 0.223462 6.318608 -0.000003 -7.471599 -0.653691 -26.187931 -2.052304 -17.604434 -0.000004 -7.386176 -1.302363 -6.390396 -0.316692 -1.830303 0.000000 -9.728104 0.000014 0.000002 -0.000001 0.000001 -0.000005 -8.290527 -5.270897 -0.000008 16.721768 16.132528 -19.261074 -0.000010 0.000011 -26.675476 -47.272596 -83.614431 -30.691696 -0.000007 0.000006 -127.959387 -35.527485 -143.319376 -20.216919 -0.000026 0.000010 -0.389242 -1.915843 -11.486812 -4.948808 2.881322 -3.679883 0.000001 0.000005 -0.000001 -13.196855 -0.000003 0.084593 -0.000001 -0.000002 -0.000002 -0.000006 -8.290527 -5.270898 -0.000002 -1.295146 -30.176080 19.261066 -0.000010 0.000005 -68.260432 20.790860 41.886726 30.691692 -0.000022 0.000013 -59.330172 6.719532 11.161230 20.216925 -0.000012 0.000004 0.657008 3.387921 -10.981689 4.948797 2.881323 -3.679884 -0.000011 0.000003 -0.000003 13.196852 -0.000017 0.084590 -0.000004 -0.000003 -0.000003 -10.083071 0.000010 0.000007 -95.368039 14.637066 7.372727 0.000000 47.042522 0.000012 88.274041 -0.000003 -0.000004 0.000003 38.766426 -0.000024 -25.102200 16.287734 -3.083967 -0.000002 3.531204 -0.000000 -0.000000 0.000002 -0.000000 0.000003 0.000004 -13.829354 -14.401292 -0.000000 -0.000000 0.000005 -0.000008 -4.034167 0.000000 0.000001 -0.000000 10.083069 0.000001 0.000004 -103.253588 12.854104 -22.464907 0.000007 47.042503 0.000006 78.804605 0.000002 -0.000007 -0.000002 38.766407 -0.000010 -10.111660 -11.948047 18.063028 -0.000008 3.531220 -0.000003 0.000000 -0.000002 -0.000000 0.000007 0.000006 -13.829342 8.104667 -0.000007 0.000000 -0.000008 -0.000001 -4.855072 -0.000001 -0.000000 0.000002 
66.001808 -11.908648 -68.664101 173.250549 44.974665 -66.533023 -0.000000 -12.181970 2.015545 22.509112 0.190044 0.340253 0.000000 -8.890294 1.567593 12.614612 -0.544657 1.314904 0.000002 -8.993095 0.786781 11.660305 7.183027 8.752360 0.000002 -9.027431 -0.000012 -4.139192 2.015616 -0.823607 -0.000006 -11.606717 -1.160670 -8.750936 0.184365 6.334754 0.000002 -7.471590 -0.653683 -26.101168 -2.071319 -17.690747 -0.000004 -7.386190 -1.302378 -6.410466 -0.309292 -1.867755 -0.000001 -9.728096 -0.000003 -0.000003 -0.000000 -0.000002 0.000000 -8.290516 -5.270933 -0.000009 16.735910 16.102897 -19.261080 -0.000010 0.000002 -26.407542 -47.507688 -83.431266 -30.691696 -0.000007 -0.000000 -128.095950 -35.594674 -143.409124 -20.216898 -0.000012 0.000015 -0.393194 -1.949531 -11.405205 -4.948798 2.881326 -3.679888 -0.000002 0.000002 0.000002 -13.196832 -0.000001 0.084594 -0.000004 -0.000001 0.000008 0.000002 -8.290516 -5.270934 0.000000 -1.295223 -30.105155 19.261066 -0.000007 -0.000007 -68.297848 20.502812 41.933694 30.691694 -0.000021 0.000003 -59.068603 6.824453 11.216225 20.216934 -0.000018 0.000005 0.676359 3.409957 -11.225867 4.948790 2.881335 -3.679882 0.000007 0.000005 -0.000002 13.196840 -0.000008 0.084588 -0.000002 0.000007 0.000003 -10.083068 0.000008 -0.000015 -94.921605 14.687258 7.003515 -0.000002 47.042507 0.000016 88.120942 -0.000003 -0.000003 -0.000002 38.766422 -0.000013 -25.044748 16.257903 -3.056721 0.000001 3.531204 -0.000002 0.000000 -0.000001 0.000000 0.000003 0.000003 -13.829349 -14.355842 -0.000003 -0.000000 0.000006 -0.000008 -4.034168 0.000000 0.000002 -0.000000 10.083073 0.000001 -0.000013 -102.868270 12.892255 -22.845612 -0.000013 47.042503 0.000013 78.629855 -0.000002 -0.000003 0.000001 38.766411 -0.000004 -10.034401 -11.761517 18.093531 0.000001 3.531212 -0.000006 0.000000 0.000005 -0.000001 0.000007 0.000015 -13.829346 8.141391 0.000000 -0.000001 0.000005 -0.000009 -4.855065 -0.000001 0.000004 -0.000001 
65.959702 -12.055076 -68.739014 173.344218 45.297996 -66.538323 0.000008 -12.181949 2.015573 22.525467 0.207529 0.354089 -0.000003 -8.890300 1.567598 12.627624 -0.549795 1.317633 0.000001 -8.993100 0.786789 11.692830 7.148324 8.802203 -0.000007 -9.027437 0.000018 -4.132360 2.003191 -0.771144 0.000005 -11.606712 -1.160684 -8.678753 0.185415 6.270062 -0.000000 -7.471595 -0.653679 -26.063706 -2.141002 -17.755181 -0.000003 -7.386190 -1.302378 -6.448709 -0.307128 -1.884908 0.000000 -9.728088 -0.000008 0.000006 -0.000001 0.000001 0.000004 -8.290520 -5.270936 -0.000011 16.743857 16.127014 -19.261074 -0.000009 0.000011 -26.464657 -47.893396 -83.567084 -30.691698 -0.000016 -0.000007 -126.944489 -34.931609 -142.714562 -20.216919 -0.000023 -0.000001 -0.433263 -2.090502 -11.711658 -4.948792 2.881337 -3.679877 -0.000005 -0.000000 -0.000001 -13.196854 0.000001 0.084603 -0.000001 -0.000000 -0.000000 0.000005 -8.290516 -5.270928 -0.000000 -1.294540 -30.104311 19.261076 -0.000006 -0.000005 -68.259920 20.146860 41.997638 30.691694 -0.000018 0.000008 -58.872529 6.983583 11.383458 20.216930 -0.000018 0.000002 0.697478 3.396353 -11.612102 4.948816 2.881317 -3.679886 -0.000008 -0.000007 0.000002 13.196854 -0.000019 0.084595 -0.000003 -0.000010 -0.000000 -10.083067 0.000010 0.000011 -94.487088 14.742775 6.642782 0.000008 47.042530 0.000000 87.957851 -0.000003 -0.000004 0.000002 38.766418 0.000004 -24.988753 16.240294 -3.063641 0.000009 3.531212 -0.000000 0.000001 -0.000000 0.000001 0.000001 0.000011 -13.829357 -14.341615 0.000001 -0.000001 0.000005 -0.000000 -4.034176 0.000000 0.000002 -0.000000 10.083075 0.000009 0.000007 -102.493464 12.904636 -23.218526 -0.000002 47.042496 0.000032 78.456566 -0.000006 -0.000005 -0.000005 38.766407 -0.000010 -9.962871 -11.651936 18.171064 0.000005 3.531212 -0.000011 0.000000 0.000000 -0.000001 0.000000 0.000014 -13.829364 8.194557 -0.000002 0.000000 -0.000009 -0.000016 -4.855059 0.000000 0.000003 -0.000002 
